<svg width="837" height="391" viewBox="0 0 837 391" fill="none" xmlns="http://www.w3.org/2000/svg">
<rect width="837" height="391" fill="white"/>
<path d="M190.028 373.186C283.85 373.186 359.908 297.128 359.908 203.306C359.908 109.483 283.85 33.4251 190.028 33.4251C96.2054 33.4251 20.1473 109.483 20.1473 203.306C20.1473 297.128 96.2054 373.186 190.028 373.186Z" fill="#4B3F72" stroke="#1F1F1F" stroke-width="5"/>
<path d="M155.906 222.132H172.256C175.655 222.132 178.367 221.57 180.446 220.512L180.453 220.509C182.6 219.435 184.147 217.988 185.147 216.18L185.151 216.175C186.209 214.294 186.751 212.119 186.751 209.622C186.751 206.836 186.26 204.472 185.313 202.5L185.309 202.492L185.306 202.485C184.421 200.561 183.001 199.075 181.008 198.02L181.002 198.016C179.064 196.97 176.428 196.408 173.025 196.408H155.906V222.132ZM155.906 181.987H169.504C172.918 181.987 175.7 181.507 177.889 180.592C180.076 179.677 181.675 178.37 182.746 176.688L182.75 176.681L182.755 176.675C183.865 174.99 184.446 172.906 184.446 170.374C184.446 167.507 183.892 165.273 182.865 163.598L182.861 163.591L182.856 163.584C181.884 161.939 180.339 160.707 178.13 159.919L178.124 159.917L178.116 159.914C175.875 159.074 172.974 158.633 169.376 158.633H155.906V181.987ZM194.369 321.882H174.762V237.916C173.942 237.946 173.106 237.961 172.256 237.961H136.298V142.739H169.376C174.731 142.739 179.53 143.257 183.765 144.305H183.764C188.046 145.31 191.712 146.894 194.738 149.074C197.771 151.26 200.079 154.012 201.647 157.323C203.264 160.647 204.053 164.559 204.053 169.029C204.053 173.033 203.117 176.744 201.24 180.141C199.386 183.531 196.526 186.26 192.715 188.344L192.716 188.345C192.628 188.393 192.538 188.438 192.449 188.485C193.659 188.942 194.786 189.491 195.829 190.138L196.485 190.555C199.717 192.674 202.152 195.36 203.758 198.615C205.451 202.044 206.295 205.74 206.295 209.686C206.295 215.805 204.96 221.016 202.233 225.265L202.234 225.266C201.558 226.336 200.803 227.338 199.97 228.272L224.164 294.898L248.644 227.319L248.882 226.659H273.57V321.882H253.963V292.113L253.964 292.094L255.434 255.969L231.185 321.23L230.943 321.882H217.324L217.082 321.229L192.859 255.919L194.368 292.092L194.369 292.113V321.882Z" fill="white" stroke="#2E1838" stroke-width="2"/>
<path d="M105.087 56.1851L136.787 77.115L166.211 60.1268L156.884 94.9359L181.229 120.113L143.31 122.389L122.381 154.089L112.748 120.418L77.9392 111.091L107.363 94.1032L105.087 56.1851Z" fill="#2E1838"/>
<path d="M431.862 154.014H412.078L411.972 144.188H429.249C432.165 144.188 434.635 143.758 436.662 142.899C438.724 142.004 440.288 140.734 441.354 139.087C442.421 137.405 442.954 135.382 442.954 133.02C442.954 130.407 442.456 128.277 441.461 126.63C440.466 124.984 438.937 123.784 436.875 123.033C434.849 122.281 432.253 121.905 429.089 121.905H416.131V189.344H402.746V111.167H429.089C433.355 111.167 437.159 111.578 440.501 112.402C443.878 113.225 446.74 114.513 449.087 116.267C451.469 117.986 453.264 120.169 454.473 122.818C455.717 125.467 456.339 128.617 456.339 132.268C456.339 135.49 455.575 138.443 454.046 141.127C452.517 143.776 450.26 145.942 447.274 147.624C444.287 149.307 440.572 150.309 436.128 150.631L431.862 154.014ZM431.276 189.344H407.866L413.891 178.659H431.276C434.298 178.659 436.822 178.158 438.848 177.155C440.874 176.117 442.385 174.703 443.381 172.914C444.412 171.088 444.927 168.958 444.927 166.524C444.927 163.983 444.483 161.781 443.594 159.92C442.705 158.023 441.301 156.573 439.381 155.571C437.462 154.533 434.955 154.014 431.862 154.014H416.824L416.931 144.188H436.502L439.541 147.893C443.807 148.036 447.309 148.984 450.047 150.738C452.82 152.492 454.881 154.765 456.232 157.557C457.583 160.349 458.259 163.356 458.259 166.578C458.259 171.553 457.174 175.724 455.006 179.088C452.873 182.453 449.798 185.012 445.78 186.766C441.763 188.485 436.928 189.344 431.276 189.344Z" fill="#4B3F72"/>
<path d="M483.375 142.309V189.344H470.524V131.248H482.789L483.375 142.309ZM501.026 130.872L500.92 142.899C500.138 142.756 499.284 142.649 498.36 142.577C497.471 142.505 496.583 142.47 495.694 142.47C493.49 142.47 491.552 142.792 489.881 143.436C488.21 144.045 486.806 144.94 485.668 146.121C484.566 147.266 483.713 148.662 483.109 150.309C482.504 151.955 482.149 153.799 482.042 155.839L479.109 156.054C479.109 152.403 479.465 149.02 480.176 145.906C480.887 142.792 481.953 140.053 483.375 137.691C484.833 135.328 486.646 133.485 488.815 132.161C491.019 130.836 493.561 130.174 496.44 130.174C497.222 130.174 498.058 130.246 498.947 130.389C499.871 130.532 500.564 130.693 501.026 130.872Z" fill="#4B3F72"/>
<path d="M539.688 177.692V149.987C539.688 147.911 539.315 146.121 538.568 144.617C537.821 143.114 536.684 141.951 535.155 141.127C533.662 140.304 531.778 139.892 529.503 139.892C527.405 139.892 525.592 140.25 524.063 140.966C522.535 141.682 521.344 142.649 520.49 143.866C519.637 145.083 519.211 146.461 519.211 148H506.412C506.412 145.709 506.963 143.49 508.065 141.342C509.168 139.194 510.767 137.279 512.865 135.597C514.962 133.915 517.469 132.59 520.384 131.624C523.299 130.657 526.57 130.174 530.196 130.174C534.533 130.174 538.373 130.908 541.714 132.375C545.092 133.843 547.74 136.062 549.66 139.033C551.615 141.969 552.593 145.655 552.593 150.094V175.92C552.593 178.569 552.771 180.95 553.126 183.062C553.517 185.138 554.068 186.945 554.779 188.485V189.344H541.608C541.003 187.948 540.523 186.176 540.168 184.028C539.848 181.845 539.688 179.733 539.688 177.692ZM541.554 154.014L541.661 162.014H532.436C530.054 162.014 527.956 162.247 526.143 162.712C524.33 163.141 522.819 163.786 521.61 164.645C520.402 165.504 519.495 166.542 518.891 167.759C518.286 168.976 517.984 170.354 517.984 171.893C517.984 173.433 518.34 174.847 519.051 176.135C519.762 177.388 520.793 178.372 522.144 179.088C523.53 179.804 525.201 180.162 527.156 180.162C529.787 180.162 532.08 179.625 534.035 178.551C536.026 177.442 537.59 176.099 538.728 174.524C539.866 172.914 540.47 171.392 540.541 169.96L544.701 175.706C544.274 177.173 543.545 178.748 542.514 180.431C541.483 182.113 540.132 183.724 538.461 185.263C536.826 186.766 534.853 188.001 532.542 188.968C530.267 189.934 527.636 190.418 524.65 190.418C520.882 190.418 517.522 189.666 514.571 188.162C511.621 186.623 509.31 184.565 507.639 181.988C505.968 179.375 505.133 176.422 505.133 173.128C505.133 170.05 505.701 167.33 506.839 164.967C508.012 162.569 509.719 160.564 511.958 158.953C514.234 157.343 517.006 156.126 520.277 155.302C523.548 154.443 527.281 154.014 531.476 154.014H541.554Z" fill="#4B3F72"/>
<path d="M578.776 143.651V189.344H565.924V131.248H578.029L578.776 143.651ZM576.483 158.148L572.324 158.094C572.359 153.978 572.928 150.201 574.03 146.765C575.168 143.329 576.732 140.376 578.723 137.906C580.749 135.436 583.167 133.539 585.975 132.214C588.784 130.854 591.912 130.174 595.36 130.174C598.133 130.174 600.64 130.568 602.879 131.355C605.155 132.107 607.092 133.342 608.692 135.06C610.327 136.778 611.572 139.015 612.425 141.772C613.278 144.492 613.705 147.839 613.705 151.812V189.344H600.8V151.759C600.8 148.967 600.391 146.765 599.573 145.154C598.791 143.508 597.636 142.344 596.107 141.664C594.614 140.948 592.747 140.59 590.508 140.59C588.304 140.59 586.331 141.056 584.589 141.986C582.847 142.917 581.371 144.188 580.162 145.799C578.989 147.409 578.083 149.271 577.443 151.383C576.803 153.495 576.483 155.75 576.483 158.148Z" fill="#4B3F72"/>
<path d="M662.018 177.316V106.871H674.923V189.344H663.245L662.018 177.316ZM624.477 160.94V159.812C624.477 155.41 624.992 151.401 626.023 147.785C627.054 144.134 628.547 141.002 630.502 138.389C632.458 135.74 634.84 133.718 637.648 132.322C640.457 130.89 643.621 130.174 647.14 130.174C650.624 130.174 653.682 130.854 656.312 132.214C658.943 133.575 661.183 135.525 663.031 138.067C664.88 140.572 666.355 143.579 667.457 147.087C668.56 150.559 669.342 154.425 669.804 158.685V162.282C669.342 166.435 668.56 170.229 667.457 173.665C666.355 177.102 664.88 180.073 663.031 182.578C661.183 185.084 658.925 187.017 656.259 188.377C653.628 189.737 650.553 190.418 647.034 190.418C643.55 190.418 640.403 189.684 637.595 188.216C634.822 186.749 632.458 184.69 630.502 182.041C628.547 179.393 627.054 176.278 626.023 172.699C624.992 169.083 624.477 165.164 624.477 160.94ZM637.328 159.812V160.94C637.328 163.589 637.559 166.059 638.021 168.35C638.519 170.641 639.283 172.663 640.314 174.417C641.345 176.135 642.679 177.495 644.314 178.498C645.985 179.464 647.976 179.947 650.286 179.947C653.202 179.947 655.601 179.303 657.485 178.014C659.37 176.726 660.845 174.99 661.912 172.806C663.014 170.587 663.76 168.117 664.151 165.397V155.678C663.938 153.566 663.494 151.597 662.818 149.772C662.178 147.946 661.307 146.353 660.205 144.993C659.103 143.597 657.734 142.523 656.099 141.772C654.499 140.984 652.597 140.59 650.393 140.59C648.047 140.59 646.056 141.092 644.421 142.094C642.785 143.096 641.434 144.474 640.368 146.228C639.337 147.982 638.572 150.022 638.075 152.349C637.577 154.676 637.328 157.164 637.328 159.812Z" fill="#4B3F72"/>
<path d="M685.908 160.94V159.705C685.908 155.517 686.513 151.633 687.721 148.054C688.93 144.438 690.672 141.306 692.947 138.657C695.258 135.973 698.067 133.897 701.373 132.429C704.715 130.926 708.483 130.174 712.678 130.174C716.909 130.174 720.677 130.926 723.983 132.429C727.325 133.897 730.151 135.973 732.462 138.657C734.773 141.306 736.533 144.438 737.741 148.054C738.95 151.633 739.555 155.517 739.555 159.705V160.94C739.555 165.128 738.95 169.012 737.741 172.591C736.533 176.171 734.773 179.303 732.462 181.988C730.151 184.637 727.343 186.713 724.037 188.216C720.73 189.684 716.98 190.418 712.785 190.418C708.554 190.418 704.768 189.684 701.426 188.216C698.12 186.713 695.312 184.637 693.001 181.988C690.69 179.303 688.93 176.171 687.721 172.591C686.513 169.012 685.908 165.128 685.908 160.94ZM698.76 159.705V160.94C698.76 163.553 699.027 166.023 699.56 168.35C700.093 170.676 700.929 172.717 702.066 174.471C703.204 176.225 704.661 177.603 706.439 178.605C708.216 179.607 710.332 180.108 712.785 180.108C715.167 180.108 717.229 179.607 718.971 178.605C720.748 177.603 722.206 176.225 723.343 174.471C724.481 172.717 725.316 170.676 725.85 168.35C726.419 166.023 726.703 163.553 726.703 160.94V159.705C726.703 157.128 726.419 154.694 725.85 152.403C725.316 150.076 724.463 148.018 723.29 146.228C722.152 144.438 720.695 143.042 718.917 142.04C717.175 141.002 715.096 140.483 712.678 140.483C710.261 140.483 708.163 141.002 706.386 142.04C704.644 143.042 703.204 144.438 702.066 146.228C700.929 148.018 700.093 150.076 699.56 152.403C699.027 154.694 698.76 157.128 698.76 159.705Z" fill="#4B3F72"/>
<path d="M763.071 143.651V189.344H750.22V131.248H762.325L763.071 143.651ZM760.778 158.148L756.619 158.094C756.654 153.978 757.223 150.201 758.325 146.765C759.463 143.329 761.027 140.376 763.018 137.906C765.044 135.436 767.462 133.539 770.27 132.214C773.079 130.854 776.207 130.174 779.656 130.174C782.429 130.174 784.935 130.568 787.175 131.355C789.45 132.107 791.388 133.342 792.987 135.06C794.623 136.778 795.867 139.015 796.72 141.772C797.573 144.492 798 147.839 798 151.812V189.344H785.095V151.759C785.095 148.967 784.686 146.765 783.869 145.154C783.086 143.508 781.931 142.344 780.402 141.664C778.909 140.948 777.043 140.59 774.803 140.59C772.599 140.59 770.626 141.056 768.884 141.986C767.142 142.917 765.667 144.188 764.458 145.799C763.285 147.409 762.378 149.271 761.738 151.383C761.098 153.495 760.778 155.75 760.778 158.148Z" fill="#4B3F72"/>
<path d="M408.185 221.13H420.131L442.581 281.427L464.978 221.13H476.923L447.274 299.307H437.782L408.185 221.13ZM402.746 221.13H414.105L416.078 273.32V299.307H402.746V221.13ZM471.004 221.13H482.416V299.307H469.031V273.32L471.004 221.13Z" fill="#4B3F72"/>
<path d="M494.574 270.903V269.668C494.574 265.48 495.178 261.597 496.387 258.017C497.596 254.402 499.338 251.27 501.613 248.621C503.924 245.936 506.732 243.86 510.039 242.392C513.38 240.889 517.149 240.137 521.344 240.137C525.574 240.137 529.343 240.889 532.649 242.392C535.991 243.86 538.817 245.936 541.128 248.621C543.439 251.27 545.198 254.402 546.407 258.017C547.616 261.597 548.22 265.48 548.22 269.668V270.903C548.22 275.091 547.616 278.975 546.407 282.555C545.198 286.134 543.439 289.266 541.128 291.951C538.817 294.6 536.008 296.676 532.702 298.179C529.396 299.647 525.645 300.381 521.45 300.381C517.22 300.381 513.434 299.647 510.092 298.179C506.786 296.676 503.977 294.6 501.666 291.951C499.356 289.266 497.596 286.134 496.387 282.555C495.178 278.975 494.574 275.091 494.574 270.903ZM507.426 269.668V270.903C507.426 273.516 507.692 275.986 508.225 278.313C508.759 280.64 509.594 282.68 510.732 284.434C511.869 286.188 513.327 287.566 515.105 288.568C516.882 289.571 518.997 290.072 521.45 290.072C523.832 290.072 525.894 289.571 527.636 288.568C529.414 287.566 530.871 286.188 532.009 284.434C533.147 282.68 533.982 280.64 534.515 278.313C535.084 275.986 535.368 273.516 535.368 270.903V269.668C535.368 267.091 535.084 264.657 534.515 262.366C533.982 260.039 533.129 257.981 531.956 256.191C530.818 254.402 529.36 253.006 527.583 252.003C525.841 250.965 523.761 250.446 521.344 250.446C518.926 250.446 516.829 250.965 515.051 252.003C513.309 253.006 511.869 254.402 510.732 256.191C509.594 257.981 508.759 260.039 508.225 262.366C507.692 264.657 507.426 267.091 507.426 269.668Z" fill="#4B3F72"/>
<path d="M591.361 283.575C591.361 282.286 591.041 281.123 590.401 280.085C589.761 279.011 588.535 278.045 586.722 277.185C584.944 276.326 582.313 275.539 578.829 274.823C575.772 274.143 572.963 273.337 570.404 272.407C567.88 271.44 565.711 270.277 563.898 268.917C562.085 267.557 560.681 265.946 559.685 264.084C558.69 262.223 558.192 260.075 558.192 257.641C558.192 255.279 558.708 253.041 559.739 250.93C560.77 248.818 562.245 246.956 564.165 245.345C566.084 243.735 568.413 242.464 571.15 241.533C573.923 240.603 577.016 240.137 580.429 240.137C585.264 240.137 589.406 240.961 592.854 242.607C596.338 244.218 599.004 246.419 600.853 249.211C602.702 251.968 603.626 255.082 603.626 258.554H590.774C590.774 257.015 590.383 255.583 589.601 254.259C588.855 252.898 587.717 251.807 586.188 250.983C584.66 250.124 582.74 249.695 580.429 249.695C578.225 249.695 576.394 250.053 574.937 250.768C573.514 251.449 572.448 252.343 571.737 253.453C571.061 254.563 570.724 255.78 570.724 257.104C570.724 258.071 570.902 258.948 571.257 259.735C571.648 260.487 572.288 261.185 573.177 261.829C574.066 262.438 575.274 263.011 576.803 263.547C578.367 264.084 580.322 264.603 582.669 265.105C587.077 266.035 590.863 267.234 594.027 268.702C597.227 270.134 599.68 271.995 601.386 274.286C603.093 276.541 603.946 279.405 603.946 282.877C603.946 285.454 603.395 287.817 602.293 289.964C601.226 292.076 599.662 293.92 597.6 295.495C595.538 297.034 593.067 298.233 590.188 299.092C587.344 299.951 584.144 300.381 580.589 300.381C575.363 300.381 570.937 299.45 567.311 297.589C563.685 295.692 560.93 293.275 559.045 290.34C557.197 287.369 556.272 284.291 556.272 281.105H568.697C568.84 283.503 569.497 285.418 570.67 286.85C571.879 288.246 573.372 289.266 575.15 289.911C576.963 290.519 578.829 290.823 580.749 290.823C583.06 290.823 584.997 290.519 586.562 289.911C588.126 289.266 589.317 288.407 590.134 287.333C590.952 286.224 591.361 284.971 591.361 283.575Z" fill="#4B3F72"/>
<path d="M638.768 290.072C640.865 290.072 642.75 289.66 644.421 288.837C646.127 287.978 647.496 286.797 648.527 285.293C649.593 283.79 650.18 282.054 650.286 280.085H662.392C662.32 283.843 661.218 287.262 659.085 290.34C656.952 293.419 654.126 295.871 650.606 297.696C647.087 299.486 643.194 300.381 638.928 300.381C634.52 300.381 630.68 299.629 627.41 298.126C624.139 296.587 621.419 294.475 619.251 291.79C617.082 289.105 615.447 286.009 614.345 282.501C613.278 278.993 612.745 275.235 612.745 271.226V269.346C612.745 265.337 613.278 261.579 614.345 258.071C615.447 254.527 617.082 251.413 619.251 248.728C621.419 246.044 624.139 243.949 627.41 242.446C630.68 240.907 634.502 240.137 638.875 240.137C643.496 240.137 647.549 241.068 651.033 242.929C654.517 244.755 657.254 247.314 659.245 250.607C661.272 253.865 662.32 257.659 662.392 261.99H650.286C650.18 259.843 649.647 257.91 648.687 256.191C647.762 254.438 646.447 253.041 644.741 252.003C643.07 250.965 641.061 250.446 638.715 250.446C636.119 250.446 633.969 250.983 632.262 252.057C630.556 253.095 629.223 254.527 628.263 256.353C627.303 258.142 626.61 260.165 626.183 262.42C625.792 264.639 625.596 266.948 625.596 269.346V271.226C625.596 273.624 625.792 275.951 626.183 278.206C626.574 280.461 627.25 282.483 628.209 284.273C629.205 286.027 630.556 287.441 632.262 288.515C633.969 289.553 636.137 290.072 638.768 290.072Z" fill="#4B3F72"/>
<path d="M669.804 270.903V269.668C669.804 265.48 670.408 261.597 671.617 258.017C672.826 254.402 674.568 251.27 676.843 248.621C679.154 245.936 681.962 243.86 685.268 242.392C688.61 240.889 692.379 240.137 696.574 240.137C700.804 240.137 704.573 240.889 707.879 242.392C711.221 243.86 714.047 245.936 716.358 248.621C718.668 251.27 720.428 254.402 721.637 258.017C722.846 261.597 723.45 265.48 723.45 269.668V270.903C723.45 275.091 722.846 278.975 721.637 282.555C720.428 286.134 718.668 289.266 716.358 291.951C714.047 294.6 711.238 296.676 707.932 298.179C704.626 299.647 700.875 300.381 696.68 300.381C692.45 300.381 688.664 299.647 685.322 298.179C682.016 296.676 679.207 294.6 676.896 291.951C674.585 289.266 672.826 286.134 671.617 282.555C670.408 278.975 669.804 275.091 669.804 270.903ZM682.655 269.668V270.903C682.655 273.516 682.922 275.986 683.455 278.313C683.989 280.64 684.824 282.68 685.962 284.434C687.099 286.188 688.557 287.566 690.334 288.568C692.112 289.571 694.227 290.072 696.68 290.072C699.062 290.072 701.124 289.571 702.866 288.568C704.644 287.566 706.101 286.188 707.239 284.434C708.376 282.68 709.212 280.64 709.745 278.313C710.314 275.986 710.598 273.516 710.598 270.903V269.668C710.598 267.091 710.314 264.657 709.745 262.366C709.212 260.039 708.359 257.981 707.186 256.191C706.048 254.402 704.59 253.006 702.813 252.003C701.071 250.965 698.991 250.446 696.574 250.446C694.156 250.446 692.059 250.965 690.281 252.003C688.539 253.006 687.099 254.402 685.962 256.191C684.824 257.981 683.989 260.039 683.455 262.366C682.922 264.657 682.655 267.091 682.655 269.668Z" fill="#4B3F72"/>
</svg>
